<?xml version="1.0" encoding="utf-8"?>
<!-- Generator: Adobe Illustrator 23.0.4, SVG Export Plug-In . SVG Version: 6.00 Build 0)  -->
<svg version="1.1" id="レイヤー_1" xmlns="http://www.w3.org/2000/svg" xmlns:xlink="http://www.w3.org/1999/xlink" x="0px"
	 y="0px" viewBox="0 0 804 804" style="enable-background:new 0 0 804 804;" xml:space="preserve">
<style type="text/css">
	.st0{fill:#101012;}
	.st1{fill:#110D0F;}
	.st2{opacity:0.1;fill:none;stroke:#FFFFFF;stroke-miterlimit:10;}
	.st3{fill:none;}
	.st4{fill:#070002;}
	.st5{opacity:0.1;fill:none;stroke:#A42D1F;stroke-miterlimit:10;}
	.st6{opacity:0.1;fill:none;stroke:#9D2D24;stroke-miterlimit:10;}
	.st7{opacity:0.1;fill:none;stroke:#972C23;stroke-miterlimit:10;}
	.st8{fill:#9A1506;}
	.st9{fill:#9A1506;stroke:#242424;}
	.st10{fill:#242424;}
	.st11{fill:url(#SVGID_1_);}
	.st12{fill:url(#SVGID_2_);}
</style>
<g>
	<path class="st0" d="M402.09,794.55L402.09,794.55c-216.73,0-392.42-175.69-392.42-392.42v0C9.67,185.4,185.36,9.71,402.09,9.71h0
		c216.73,0,392.42,175.69,392.42,392.42v0C794.51,618.85,618.82,794.55,402.09,794.55z"/>
	<path class="st1" d="M402.09,128.61L402.09,128.61c-151.06,0-273.52,122.46-273.52,273.52v0c0,151.06,122.46,273.52,273.52,273.52
		h0c151.06,0,273.52-122.46,273.52-273.52v0C675.61,251.07,553.15,128.61,402.09,128.61z M665.66,402.13
		c0,145.57-118.01,263.57-263.57,263.57h0c-145.57,0-263.57-118.01-263.57-263.57v0c0-145.57,118.01-263.57,263.57-263.57h0
		C547.66,138.55,665.66,256.56,665.66,402.13L665.66,402.13z"/>
	<path class="st2" d="M402.09,683.13L402.09,683.13c-155.19,0-281-125.81-281-281v0c0-155.19,125.81-281,281-281h0
		c155.19,0,281,125.81,281,281v0C683.09,557.32,557.28,683.13,402.09,683.13z"/>
	<path class="st2" d="M402.09,691.13L402.09,691.13c-159.61,0-289-129.39-289-289v0c0-159.61,129.39-289,289-289h0
		c159.61,0,289,129.39,289,289v0C691.09,561.74,561.7,691.13,402.09,691.13z"/>
	<path class="st2" d="M402.09,699.13L402.09,699.13c-164.03,0-297-132.97-297-297v0c0-164.03,132.97-297,297-297h0
		c164.03,0,297,132.97,297,297v0C699.09,566.16,566.12,699.13,402.09,699.13z"/>
	<path class="st2" d="M402.09,707.13L402.09,707.13c-168.45,0-305-136.55-305-305v0c0-168.45,136.55-305,305-305h0
		c168.45,0,305,136.55,305,305v0C707.09,570.58,570.54,707.13,402.09,707.13z"/>
	<path class="st2" d="M402.09,715.13L402.09,715.13c-172.87,0-313-140.13-313-313v0c0-172.86,140.13-313,313-313h0
		c172.86,0,313,140.13,313,313v0C715.09,574.99,574.96,715.13,402.09,715.13z"/>
	<path class="st2" d="M402.09,723.13L402.09,723.13c-177.28,0-321-143.72-321-321v0c0-177.28,143.72-321,321-321h0
		c177.28,0,321,143.72,321,321v0C723.09,579.41,579.37,723.13,402.09,723.13z"/>
	<path class="st2" d="M402.09,731.13L402.09,731.13c-181.7,0-329-147.3-329-329v0c0-181.7,147.3-329,329-329h0
		c181.7,0,329,147.3,329,329v0C731.09,583.83,583.79,731.13,402.09,731.13z"/>
	<path class="st2" d="M402.09,739.13L402.09,739.13c-186.12,0-337-150.88-337-337v0c0-186.12,150.88-337,337-337h0
		c186.12,0,337,150.88,337,337v0C739.09,588.25,588.21,739.13,402.09,739.13z"/>
	<path class="st2" d="M402.09,747.13L402.09,747.13c-190.54,0-345-154.46-345-345v0c0-190.54,154.46-345,345-345h0
		c190.54,0,345,154.46,345,345v0C747.09,592.67,592.63,747.13,402.09,747.13z"/>
	<path class="st2" d="M402.09,755.13L402.09,755.13c-194.96,0-353-158.04-353-353v0c0-194.96,158.04-353,353-353h0
		c194.96,0,353,158.04,353,353v0C755.09,597.08,597.05,755.13,402.09,755.13z"/>
	<path class="st2" d="M402.09,763.13L402.09,763.13c-199.38,0-361-161.62-361-361v0c0-199.37,161.63-361,361-361h0
		c199.37,0,361,161.63,361,361v0C763.09,601.5,601.46,763.13,402.09,763.13z"/>
	<path class="st2" d="M402.09,771.13L402.09,771.13c-203.79,0-369-165.21-369-369v0c0-203.79,165.21-369,369-369h0
		c203.79,0,369,165.21,369,369v0C771.09,605.92,605.88,771.13,402.09,771.13z"/>
	<path class="st2" d="M402.09,779.13L402.09,779.13c-208.21,0-377-168.79-377-377v0c0-208.21,168.79-377,377-377h0
		c208.21,0,377,168.79,377,377v0C779.09,610.34,610.3,779.13,402.09,779.13z"/>
	<path class="st2" d="M402.09,787.13L402.09,787.13c-212.63,0-385-172.37-385-385v0c0-212.63,172.37-385,385-385h0
		c212.63,0,385,172.37,385,385v0C787.09,614.76,614.72,787.13,402.09,787.13z"/>
	<path class="st3" d="M402.09,602.13L402.09,602.13c-110.46,0-200-89.54-200-200v0c0-110.46,89.54-200,200-200h0
		c110.46,0,200,89.54,200,200v0C602.09,512.59,512.55,602.13,402.09,602.13z"/>
	<path class="st4" d="M401.61,666.71L401.61,666.71c-146.35,0-265-118.64-265-265v0c0-146.35,118.64-265,265-265h0
		c146.35,0,265,118.64,265,265v0C666.61,548.07,547.96,666.71,401.61,666.71z"/>
	<path class="st5" d="M401.61,601.71L401.61,601.71c-110.46,0-200-89.54-200-200v0c0-110.46,89.54-200,200-200h0
		c110.46,0,200,89.54,200,200v0C601.61,512.17,512.07,601.71,401.61,601.71z"/>
	<path class="st5" d="M401.61,610.71L401.61,610.71c-115.43,0-209-93.57-209-209v0c0-115.43,93.57-209,209-209h0
		c115.43,0,209,93.57,209,209v0C610.61,517.14,517.04,610.71,401.61,610.71z"/>
	<path class="st5" d="M401.61,618.71L401.61,618.71c-119.85,0-217-97.15-217-217v0c0-119.84,97.15-217,217-217h0
		c119.84,0,217,97.15,217,217v0C618.61,521.56,521.46,618.71,401.61,618.71z"/>
	<path class="st6" d="M401.61,626.71L401.61,626.71c-124.26,0-225-100.74-225-225v0c0-124.26,100.74-225,225-225h0
		c124.26,0,225,100.74,225,225v0C626.61,525.97,525.87,626.71,401.61,626.71z"/>
	<path class="st6" d="M401.61,634.71L401.61,634.71c-128.68,0-233-104.32-233-233v0c0-128.68,104.32-233,233-233h0
		c128.68,0,233,104.32,233,233v0C634.61,530.39,530.29,634.71,401.61,634.71z"/>
	<path class="st6" d="M401.61,642.71L401.61,642.71c-133.1,0-241-107.9-241-241v0c0-133.1,107.9-241,241-241h0
		c133.1,0,241,107.9,241,241v0C642.61,534.81,534.71,642.71,401.61,642.71z"/>
	<path class="st7" d="M401.61,650.71L401.61,650.71c-137.52,0-249-111.48-249-249v0c0-137.52,111.48-249,249-249h0
		c137.52,0,249,111.48,249,249v0C650.61,539.23,539.13,650.71,401.61,650.71z"/>
	<path class="st7" d="M401.61,658.71L401.61,658.71c-141.94,0-257-115.06-257-257v0c0-141.94,115.06-257,257-257h0
		c141.94,0,257,115.06,257,257v0C658.61,543.65,543.55,658.71,401.61,658.71z"/>
	<path class="st8" d="M401.61,591.21L401.61,591.21c-104.66,0-189.5-84.84-189.5-189.5v0c0-104.66,84.84-189.5,189.5-189.5h0
		c104.66,0,189.5,84.84,189.5,189.5v0C591.11,506.37,506.27,591.21,401.61,591.21z"/>
	<path class="st9" d="M401.61,572.21L401.61,572.21c-94.16,0-170.5-76.33-170.5-170.5v0c0-94.16,76.33-170.5,170.5-170.5h0
		c94.16,0,170.5,76.33,170.5,170.5v0C572.11,495.88,495.77,572.21,401.61,572.21z"/>
	<path class="st9" d="M401.61,462.71L401.61,462.71c-33.69,0-61-27.31-61-61v0c0-33.69,27.31-61,61-61h0c33.69,0,61,27.31,61,61v0
		C462.61,435.4,435.3,462.71,401.61,462.71z"/>
	<path class="st10" d="M401.61,412.71L401.61,412.71c-6.08,0-11-4.92-11-11l0,0c0-6.08,4.92-11,11-11h0c6.08,0,11,4.92,11,11l0,0
		C412.61,407.79,407.69,412.71,401.61,412.71z"/>
</g>
<radialGradient id="SVGID_1_" cx="77.4515" cy="402.1281" r="112.5132" gradientUnits="userSpaceOnUse">
	<stop  offset="0" style="stop-color:#FFFFFF;stop-opacity:0.15"/>
	<stop  offset="1" style="stop-color:#FFFFFF;stop-opacity:0"/>
</radialGradient>
<path class="st11" d="M33.44,536.06L33.44,536.06c0.06,0.17,0.12,0.33,0.18,0.49l111.61-40.62c-0.05-0.13-0.1-0.26-0.15-0.4l0,0
	c-22.91-62.94-21.25-128.82,0.05-187.17L33.42,267.7C2.93,351.37,0.6,445.83,33.44,536.06z"/>
<radialGradient id="SVGID_2_" cx="292.1647" cy="402.1279" r="112.5132" gradientTransform="matrix(-1 0 0 1 1018.9031 0)" gradientUnits="userSpaceOnUse">
	<stop  offset="0" style="stop-color:#FFFFFF;stop-opacity:0.15"/>
	<stop  offset="1" style="stop-color:#FFFFFF;stop-opacity:0"/>
</radialGradient>
<path class="st12" d="M770.75,536.06L770.75,536.06c-0.06,0.17-0.12,0.33-0.18,0.49l-111.61-40.62c0.05-0.13,0.1-0.26,0.15-0.4l0,0
	c22.91-62.94,21.25-128.82-0.05-187.17l111.71-40.66C801.26,351.37,803.59,445.83,770.75,536.06z"/>
</svg>
