<?xml version="1.0" encoding="utf-8"?>
<!-- Generator: Adobe Illustrator 23.0.4, SVG Export Plug-In . SVG Version: 6.00 Build 0)  -->
<svg version="1.1" id="レイヤー_1" xmlns="http://www.w3.org/2000/svg" xmlns:xlink="http://www.w3.org/1999/xlink" x="0px"
	 y="0px" viewBox="0 0 243.33 359.69" style="enable-background:new 0 0 243.33 359.69;" xml:space="preserve">
<style type="text/css">
	.st0{opacity:0.1;}
	.st1{fill:#FFFFFF;}
	.st2{fill:#404040;}
	.st3{fill:#B2B2B2;}
</style>
<g>
	<path class="st0" d="M41.24,0L41.24,0C18.05,0.41-0.43,19.54-0.02,42.73l0,0C0.38,65.92,19.51,84.4,42.7,83.99l0,0
		c23.19-0.4,41.67-19.53,41.26-42.73v0C83.56,18.07,64.43-0.4,41.24,0z M68.97,41.53c0.26,14.91-11.62,27.21-26.52,27.47h0
		c-3.73,0.07-7.29-0.63-10.55-1.94c-2.03-0.82-3.95-1.88-5.7-3.14c-1.4-1.01-2.71-2.16-3.89-3.41c-0.59-0.63-1.15-1.29-1.68-1.97
		s-1.03-1.39-1.49-2.13c-2.55-4.04-4.06-8.81-4.15-13.93l0,0c-0.07-3.73,0.63-7.29,1.94-10.55c0.82-2.03,1.88-3.95,3.14-5.7
		c1.52-2.11,3.33-3.99,5.39-5.58c1.71-1.33,3.58-2.45,5.59-3.34c3.21-1.42,6.74-2.24,10.47-2.3l0,0c5.13-0.09,9.94,1.26,14.07,3.66
		c0.75,0.44,1.48,0.91,2.18,1.42c0.7,0.51,1.38,1.05,2.03,1.61c1.3,1.14,2.49,2.4,3.55,3.77c1.33,1.71,2.45,3.58,3.34,5.59
		C68.08,34.26,68.9,37.8,68.97,41.53L68.97,41.53z"/>
	<path class="st1" d="M166.48,274.59l-56.93-53.09c-14.49-13.51-24.62-31.05-29.07-50.35L55.98,65.07
		c7.93-4.82,13.16-13.6,12.99-23.55v0C68.71,26.62,56.41,14.74,41.5,15h0c-14.91,0.26-26.78,12.56-26.52,27.47v0
		c0.24,13.88,10.93,25.13,24.44,26.4l25.67,111.16c4.46,19.31,14.58,36.84,29.07,50.35l0,0l0,0l60.74,56.64L166.48,274.59z"/>
	<path class="st2" d="M162.87,278.06l-4.77,5.12l-9-8.39c-0.69-0.64-0.72-1.71-0.08-2.4l2.46-2.64c0.64-0.69,1.71-0.72,2.4-0.08
		L162.87,278.06z"/>
	<path class="st1" d="M241.99,335.44l-21.13,22.66c-1.89,2.02-5.05,2.13-7.08,0.25l-22.66-21.13c-2.02-1.89-2.13-5.05-0.25-7.08
		L212,307.48c1.89-2.02,5.05-2.13,7.08-0.25l22.66,21.13C243.76,330.25,243.87,333.42,241.99,335.44z"/>
	<path class="st3" d="M219.53,350.73L219.53,350.73c-0.56,0.61-1.51,0.64-2.12,0.07l-19.02-17.73c-0.61-0.57-0.64-1.51-0.07-2.12
		l0,0c0.56-0.61,1.51-0.64,2.12-0.07l19.02,17.73C220.06,349.17,220.1,350.12,219.53,350.73z"/>
	<path class="st3" d="M234.54,334.64L234.54,334.64c-0.56,0.61-1.51,0.64-2.12,0.07l-19.02-17.73c-0.61-0.56-0.64-1.51-0.07-2.12
		l0,0c0.56-0.61,1.51-0.64,2.12-0.07l19.02,17.73C235.07,333.08,235.1,334.03,234.54,334.64z"/>
	<path class="st1" d="M210.98,308.57l-19.1,20.48l-35.84-33.42c-2.83-2.64-2.98-7.07-0.35-9.9l9.55-10.24
		c2.64-2.83,7.07-2.98,9.9-0.35L210.98,308.57z"/>
	<path class="st0" d="M41.81,33L41.81,33c-4.97,0.09-8.93,4.19-8.84,9.16v0c0.09,4.97,4.19,8.93,9.16,8.84l0,0
		c4.97-0.09,8.93-4.19,8.84-9.16v0C50.88,36.87,46.78,32.91,41.81,33z"/>
</g>
</svg>
