<?xml version="1.0" encoding="utf-8"?>
<!-- Generator: Adobe Illustrator 23.0.2, SVG Export Plug-In . SVG Version: 6.00 Build 0)  -->
<svg version="1.1" id="レイヤー_1" xmlns="http://www.w3.org/2000/svg" xmlns:xlink="http://www.w3.org/1999/xlink" x="0px"
	 y="0px" viewBox="0 0 250 250" style="enable-background:new 0 0 250 250;" xml:space="preserve">
<style type="text/css">
	.st0{fill:url(#SVGID_1_);}
	.st1{fill:#FFFFFF;}
</style>
<linearGradient id="SVGID_1_" gradientUnits="userSpaceOnUse" x1="-1.448840e-04" y1="127.0266" x2="250" y2="127.0266" gradientTransform="matrix(1 0 0 -1 0 252)">
	<stop  offset="0" style="stop-color:#FF6341"/>
	<stop  offset="1" style="stop-color:#FF2E23"/>
</linearGradient>
<circle class="st0" cx="125" cy="124.97" r="125"/>
<path class="st1" d="M159.02,75.02h-10.7v-3.59c0-1.84-1.49-3.33-3.33-3.33c-1.84,0-3.33,1.49-3.33,3.33v3.59h-33.21v-3.59
	c0-1.84-1.49-3.33-3.33-3.33c-1.84,0-3.33,1.49-3.33,3.33v3.59H90.98c-7.59,0-13.74,6.15-13.74,13.74v72.48
	c0,7.59,6.15,13.74,13.74,13.74h68.04c7.59,0,13.74-6.15,13.74-13.74V88.76C172.76,81.18,166.61,75.02,159.02,75.02z M93.95,81.69
	h7.84v3.79c0,1.84,1.49,3.33,3.33,3.33c1.84,0,3.33-1.49,3.33-3.33v-3.79h33.21v3.79c0,1.84,1.49,3.33,3.33,3.33
	c1.84,0,3.33-1.49,3.33-3.33v-3.79h7.89c5.46,0,9.88,4.42,9.88,9.88v6.92H83.91v-6.76C83.91,86.18,88.4,81.69,93.95,81.69z"/>
</svg>
