<?xml version="1.0" encoding="utf-8"?>
<!-- Generator: Adobe Illustrator 23.0.2, SVG Export Plug-In . SVG Version: 6.00 Build 0)  -->
<svg version="1.1" id="レイヤー_1" xmlns="http://www.w3.org/2000/svg" xmlns:xlink="http://www.w3.org/1999/xlink" x="0px"
	 y="0px" viewBox="0 0 250 250" style="enable-background:new 0 0 250 250;" xml:space="preserve">
<style type="text/css">
	.st0{fill:url(#SVGID_1_);}
	.st1{fill:#FFFFFF;}
</style>
<linearGradient id="SVGID_1_" gradientUnits="userSpaceOnUse" x1="-2.281368e-05" y1="127.0266" x2="250" y2="127.0266" gradientTransform="matrix(1 0 0 -1 0 252)">
	<stop  offset="0" style="stop-color:#FF6341"/>
	<stop  offset="1" style="stop-color:#FF2E23"/>
</linearGradient>
<circle class="st0" cx="125" cy="124.97" r="125"/>
<g>
	<path class="st1" d="M178.79,112.82l-22.21,6.52c-0.95,0.28-1.6,1.15-1.6,2.13v12.22v2.56v15.76c-2.44-1.66-5.39-2.64-8.56-2.64
		c-8.41,0-15.23,6.82-15.23,15.23c0,8.41,6.82,15.23,15.23,15.23c8.41,0,15.23-6.82,15.23-15.23c0-0.9-0.09-1.78-0.24-2.63
		l0.24,2.63v-27.34l18.39-5.4c0.95-0.28,1.6-1.15,1.6-2.13v-14.78C181.64,113.47,180.22,112.41,178.79,112.82z"/>
	<path class="st1" d="M133.85,142.69c0.37-0.22,0.74-0.42,1.12-0.61c0.05-0.02,0.09-0.04,0.14-0.07c0.63-0.31,1.27-0.59,1.94-0.83
		c0.18-0.07,0.37-0.14,0.56-0.2c0.29-0.1,0.59-0.19,0.89-0.28c0.36-0.1,0.72-0.2,1.09-0.28c0.25-0.06,0.5-0.11,0.75-0.16
		c0.48-0.09,0.96-0.16,1.45-0.22c0.18-0.02,0.35-0.04,0.53-0.05c0.6-0.05,1.21-0.09,1.83-0.09c0.13,0,0.25,0.02,0.38,0.02v-0.02h3.4
		v-0.8v-6.18v-4.39v-2.56v-12.22c0-0.99,0.65-1.85,1.6-2.13l16.58-4.87V91.53c0-9.11-7.39-16.5-16.5-16.5h-49.18
		c-9.11,0-16.5,7.39-16.5,16.5v62.51c0,9.11,7.39,16.5,16.5,16.5h23.3v-10h0.01c0-0.08-0.01-0.15-0.01-0.22
		c0-0.73,0.04-1.45,0.12-2.16c0-0.01,0-0.03,0.01-0.04c0.08-0.7,0.19-1.39,0.33-2.06C125.37,150.35,128.97,145.55,133.85,142.69
		C133.85,142.69,133.85,142.69,133.85,142.69z M101.7,95.47h46.6c2.45,0,4.44,1.99,4.44,4.44c0,2.45-1.99,4.44-4.44,4.44h-46.6
		c-2.45,0-4.44-1.99-4.44-4.44C97.26,97.46,99.25,95.47,101.7,95.47z M119.27,148.78H101.7c-2.45,0-4.44-1.99-4.44-4.44
		c0-2.45,1.99-4.44,4.44-4.44h17.57c2.45,0,4.44,1.99,4.44,4.44C123.71,146.79,121.72,148.78,119.27,148.78z M101.7,126.56
		c-2.45,0-4.44-1.99-4.44-4.44c0-2.45,1.99-4.44,4.44-4.44h35.69c2.45,0,4.44,1.99,4.44,4.44c0,2.45-1.99,4.44-4.44,4.44H101.7z"/>
</g>
</svg>
