<?xml version="1.0" encoding="utf-8"?>
<!-- Generator: Adobe Illustrator 23.0.2, SVG Export Plug-In . SVG Version: 6.00 Build 0)  -->
<svg version="1.1" id="レイヤー_1" xmlns="http://www.w3.org/2000/svg" xmlns:xlink="http://www.w3.org/1999/xlink" x="0px"
	 y="0px" viewBox="0 0 250 250" style="enable-background:new 0 0 250 250;" xml:space="preserve">
<style type="text/css">
	.st0{fill:url(#SVGID_1_);}
	.st1{fill:#FFFFFF;}
</style>
<linearGradient id="SVGID_1_" gradientUnits="userSpaceOnUse" x1="0.3611" y1="127" x2="250" y2="127" gradientTransform="matrix(1 0 0 -1 0 252)">
	<stop  offset="0" style="stop-color:#FF6341"/>
	<stop  offset="1" style="stop-color:#FF2E23"/>
</linearGradient>
<circle class="st0" cx="125.18" cy="125" r="124.82"/>
<path class="st1" d="M124.22,75.09c-22.81,0-42.04,15.31-47.99,36.22l10.39,6L99.94,125c0-13.41,10.87-24.28,24.28-24.28
	c13.41,0,24.28,10.87,24.28,24.28s-10.87,24.28-24.28,24.28c-13.41,0-24.28-10.87-24.28-24.28l-13.32,7.69l-10.39,6
	c5.95,20.9,25.18,36.22,47.99,36.22c27.56,0,49.91-22.34,49.91-49.91C174.13,97.44,151.78,75.09,124.22,75.09z"/>
<circle class="st1" cx="130.43" cy="119.12" r="8.95"/>
</svg>
