<?xml version="1.0" encoding="utf-8"?>
<!-- Generator: Adobe Illustrator 23.0.6, SVG Export Plug-In . SVG Version: 6.00 Build 0)  -->
<svg version="1.1" id="レイヤー_1" xmlns="http://www.w3.org/2000/svg" xmlns:xlink="http://www.w3.org/1999/xlink" x="0px"
	 y="0px" viewBox="0 0 356 356" style="enable-background:new 0 0 356 356;" xml:space="preserve">
<style type="text/css">
	.st0{opacity:0.4;}
	.st1{fill:#FFFFFF;}
	.st2{fill:#4DD9F5;}
</style>
<g>
	<rect class="st0" width="356" height="356"/>
	<g>
		<path class="st1" d="M73.77,164.67h8.33c0.95-1.27,1.69-2.48,2.23-3.62l2.64,0.76c-0.54,0.89-1.15,1.84-1.83,2.86h12.39
			c-0.54,4.19-2.37,7.75-5.48,10.67c1.89,0.76,3.72,1.4,5.48,1.91l-1.62,2.29c-2.03-1.02-4.06-1.84-6.09-2.48
			c-4.2,2.54-9.21,4.44-15.03,5.72c-0.14-0.38-0.54-1.02-1.22-1.91c-0.14-0.13-0.2-0.26-0.2-0.38c6.09-1.52,10.7-3.11,13.81-4.76
			c-0.68-0.25-1.83-0.7-3.45-1.33c-0.81-0.51-3.05-1.46-6.7-2.86c0.27-0.25,0.68-0.76,1.22-1.52c1.08-1.4,1.89-2.48,2.44-3.24h-6.91
			V164.67z M86.36,137.61h2.44v10.67h10.56v2.1H88.8v4.19l1.22-1.33c3.38,2.03,6.09,3.69,8.12,4.95l-1.62,1.91
			c-1.62-1.27-4.2-2.92-7.72-4.95v4.76h-2.44v-7.24c-2.57,3.3-6.23,6.1-10.97,8.38c-0.14-0.25-0.54-0.76-1.22-1.52
			c-0.27-0.38-0.48-0.63-0.61-0.76c4.47-1.52,8.53-4.32,12.19-8.38H74.38v-2.1h11.98V137.61z M75.8,141.04l1.83-1.33
			c2.57,2.16,4.54,4,5.89,5.53l-2.03,1.52C80.27,145.36,78.37,143.46,75.8,141.04z M80.67,170.76c0.68,0.26,1.76,0.7,3.25,1.33
			c2.44,0.89,4.27,1.59,5.48,2.1c2.71-2.03,4.4-4.51,5.08-7.43H83.72C82.5,168.42,81.48,169.75,80.67,170.76z M99.16,141.04
			c-2.03,2.03-4.06,3.94-6.09,5.72l-1.83-1.52c1.76-1.52,3.72-3.36,5.89-5.53L99.16,141.04z M96.72,181.05
			c5.82-4.19,9.68-7.62,11.58-10.29c-2.71-4.19-4.54-9.78-5.48-16.77c-0.27,0.38-0.68,1.08-1.22,2.1c-0.54,0.89-0.95,1.59-1.22,2.1
			c-0.68-0.63-1.42-1.21-2.23-1.71c3.66-5.08,6.63-11.62,8.94-19.63l2.64,0.38c-0.81,3.05-1.76,5.91-2.84,8.57h15.23v2.29h-4.27
			c-1.09,10.54-3.18,18.1-6.3,22.67c1.89,2.92,5.48,6.1,10.77,9.53c-0.68,0.63-1.29,1.33-1.83,2.1c-5.01-3.43-8.53-6.48-10.56-9.15
			c-2.3,2.92-6.03,6.16-11.17,9.72C98.34,182.45,97.66,181.82,96.72,181.05z M104.84,150.38c0.95,8.13,2.64,14.17,5.08,18.1
			c2.57-4.44,4.33-11.24,5.28-20.39h-9.34C105.45,148.85,105.11,149.62,104.84,150.38z"/>
		<path class="st1" d="M150.68,162l11.58-6.48h-26v-2.29h29.66v2.67l-12.39,7.24v2.29h22.55v2.48h-22.55v8.57
			c0.27,3.68-1.76,5.59-6.09,5.72c-2.84,0-5.08,0-6.7,0c0-0.26-0.07-0.51-0.2-0.76c-0.14-0.76-0.27-1.4-0.41-1.91
			c2.3,0,4.47,0,6.5,0c2.84,0.13,4.19-1.02,4.06-3.43v-8.19h-23.56v-2.48h23.56V162z M128.75,144.47h45.5v8.57h-2.84v-6.29h-39.81
			v6.29h-2.84V144.47z M149.06,137.8l2.64-0.95c0.13,0.26,0.41,0.83,0.81,1.71c1.08,2.29,1.83,3.88,2.23,4.76l-2.64,0.95
			C151.02,141.49,150,139.33,149.06,137.8z"/>
		<path class="st1" d="M190.43,165.43v-2.67c1.08-1.65,2.16-3.87,3.25-6.67h-12.8v-2.48h14.02c0.41-1.01,1.08-2.67,2.03-4.95
			c0.41-1.14,0.74-1.97,1.02-2.48h-14.02v-2.48h15.03c0.81-1.65,1.62-3.87,2.44-6.67l2.84,0.57c-0.68,1.91-1.42,3.94-2.23,6.1h24.38
			v2.48H201c-0.27,0.51-0.61,1.33-1.02,2.48c-0.95,2.29-1.62,3.94-2.03,4.95h31.69v2.48h-32.91c-1.09,2.67-2.17,4.95-3.25,6.86
			h30.06v2.86l-13.81,11.43c0.95,0.25,2.3,0.82,4.06,1.71c1.76,0.76,3.05,1.33,3.86,1.71l-1.62,2.29c-9.21-4.19-17.88-8-26-11.43
			l1.42-2.1c0.41,0.13,1.08,0.38,2.03,0.76c5.69,2.41,10.22,4.45,13.61,6.1l12.8-10.86H190.43z"/>
		<path class="st1" d="M234.45,173.05l-0.41-2.67c1.62-0.13,4.4-0.38,8.33-0.76c-2.57,0.26-2.03,0.19,1.62-0.19v-8h-8.94v-2.67
			c0.13-0.51,0.47-1.4,1.02-2.67c1.49-3.94,2.57-7.11,3.25-9.53h-4.67v-2.29h5.48c0.81-2.54,1.55-4.95,2.23-7.24l2.64,0.57
			c-0.68,2.16-1.42,4.38-2.23,6.67h10.36v2.29h-10.97c-2.17,6.1-3.73,10.29-4.67,12.58h6.5v-8.76h2.64v8.76h5.69v2.29h-5.69v7.81
			c1.35-0.25,3.32-0.51,5.89-0.76c0.27,0,0.47,0,0.61,0v0.57c-0.14,0.89-0.2,1.46-0.2,1.71c-2.17,0.38-4.27,0.64-6.3,0.76v11.24
			h-2.64v-10.86C240.61,172.29,237.42,172.67,234.45,173.05z M251.71,177.81v-1.91c1.62-0.13,3.25-0.19,4.88-0.19V155.9h-3.25v-2.29
			h29.25v2.29h-3.86v18.48c1.49,0,2.84-0.06,4.06-0.19c0,0.26-0.07,0.7-0.2,1.33c0,0.51,0,0.83,0,0.95c-0.41,0-1.02,0-1.83,0
			c-0.95,0.13-1.62,0.19-2.03,0.19v6.1h-2.64v-5.91c-2.3,0.13-5.96,0.26-10.97,0.38C259.02,177.5,254.55,177.69,251.71,177.81z
			 M256.18,139.33h22.95v10.1h-22.95V139.33z M258.82,141.42v5.91h17.67v-5.91H258.82z M259.23,155.9v4.76h16.86v-4.76H259.23z
			 M259.23,162.95v4.95h16.86v-4.95H259.23z M259.23,175.53c1.76-0.13,4.33-0.25,7.72-0.38c4.2-0.25,7.24-0.44,9.14-0.57V170h-16.86
			V175.53z"/>
	</g>
	<g>
		<path class="st1" d="M101.51,214.56h-5.62V197.3h5.39c6.2,0.05,9.35,2.89,9.45,8.52C110.93,211.86,107.86,214.77,101.51,214.56z
			 M101.19,200.5h-1.33v11.02h1.33c3.64,0.05,5.44-1.85,5.39-5.7C106.48,202.32,104.68,200.55,101.19,200.5z"/>
		<path class="st1" d="M117.41,200.5h-3.91v-3.2h3.91V200.5z M117.41,214.56h-3.91V202.3h3.91V214.56z"/>
		<path class="st1" d="M120.49,214.72l4.14,0.39c0.16,1.04,0.91,1.59,2.27,1.64c1.56-0.05,2.37-1.07,2.42-3.05l-0.08-1.64
			c-0.78,1.3-2.06,1.95-3.83,1.95c-3.33-0.16-5.05-2.16-5.16-6.02c0.05-4.01,1.88-6.04,5.47-6.09c1.67,0.05,2.84,0.62,3.52,1.72
			v-1.41h3.83v10.39c0.26,4.89-1.98,7.19-6.72,6.88C122.71,219.43,120.75,217.84,120.49,214.72z M129.32,208v-0.39
			c-0.05-1.77-0.89-2.68-2.5-2.73c-1.77,0.05-2.68,1.04-2.73,2.97c0.05,2.19,0.94,3.33,2.66,3.44
			C128.46,211.28,129.32,210.19,129.32,208z"/>
		<path class="st1" d="M140.46,200.5h-3.91v-3.2h3.91V200.5z M140.46,214.56h-3.91V202.3h3.91V214.56z"/>
		<path class="st1" d="M144.87,210.97v-5.94h-1.95v-2.81h1.95V198l3.75-0.78v5h2.97v2.81h-2.97v5c0,1.36,0.49,2.01,1.48,1.95
			c0.36,0,0.73-0.1,1.09-0.31l0.78,2.42c-0.89,0.47-1.93,0.7-3.12,0.7C146.15,214.85,144.82,213.57,144.87,210.97z"/>
		<path class="st1" d="M167.26,214.48h-3.59c-0.31-0.57-0.5-1.2-0.55-1.88c-1.15,1.41-2.92,2.13-5.31,2.19
			c-2.5-0.16-3.83-1.33-3.98-3.52c-0.05-2.19,1.46-3.52,4.53-3.98c1.82-0.31,3.33-0.7,4.53-1.17c0.1-1.14-0.7-1.69-2.42-1.64
			c-1.36,0-2.27,0.52-2.73,1.56l-3.52-0.47c0.68-2.5,2.73-3.72,6.17-3.67c4.32-0.16,6.41,1.62,6.25,5.31v4.69
			C166.63,213.05,166.84,213.91,167.26,214.48z M163.19,208.94v-0.7c-0.78,0.47-1.88,0.83-3.28,1.09c-1.67,0.37-2.5,0.94-2.5,1.72
			c-0.05,0.83,0.6,1.22,1.95,1.17C161.71,212.06,162.98,210.97,163.19,208.94z"/>
		<path class="st1" d="M173.55,214.48h-3.83V196.2h3.83V214.48z"/>
		<path class="st1" d="M199.8,214.56h-4.3l-1.25-3.75h-6.56l-1.25,3.75h-4.22l6.41-17.27h4.69L199.8,214.56z M193.55,207.84
			l-2.19-5.94c-0.16-0.52-0.29-1.02-0.39-1.48h-0.08c-0.05,0.42-0.18,0.94-0.39,1.56l-1.95,5.86H193.55z"/>
		<path class="st1" d="M205.78,214.48h-3.83V196.2h3.83V214.48z"/>
		<path class="st1" d="M213.08,212.92v1.56h-3.83V196.2h3.83v7.73c0.83-1.35,2.19-2.03,4.06-2.03c3.23,0.16,4.89,2.21,5,6.17
			c0,4.48-1.8,6.72-5.39,6.72C215.14,214.8,213.92,214.17,213.08,212.92z M213.08,208v1.02c0.05,1.93,0.88,2.92,2.5,2.97
			c1.77,0.05,2.66-1.22,2.66-3.83c-0.11-2.08-0.96-3.18-2.58-3.28C213.99,204.93,213.14,205.97,213.08,208z"/>
		<path class="st1" d="M237.19,214.48h-3.83v-1.8c-0.89,1.41-2.16,2.11-3.83,2.11c-3.07-0.05-4.64-1.75-4.69-5.08v-7.5h3.75v7.19
			c0,1.72,0.81,2.58,2.42,2.58c1.46-0.1,2.24-1.07,2.34-2.89v-6.88h3.83V214.48z"/>
		<path class="st1" d="M260.12,214.48h-3.83v-6.95c0.05-1.82-0.62-2.71-2.03-2.66c-1.46,0-2.19,0.94-2.19,2.81v6.8h-3.83v-7.03
			c0.05-1.77-0.62-2.63-2.03-2.58c-1.41,0.05-2.14,0.99-2.19,2.81v6.8h-3.75v-12.27h3.75v1.95c0.88-1.51,2.27-2.27,4.14-2.27
			c1.77,0,2.97,0.78,3.59,2.34c0.99-1.56,2.42-2.34,4.3-2.34c2.71,0,4.06,1.67,4.06,5V214.48z"/>
	</g>
	<g>
		<path class="st2" d="M178,266.01c58.93,0,109.26,37.55,128.32,89.98h1.09c-19.06-53.04-69.8-90.98-129.41-90.98
			S67.66,302.95,48.59,355.99h1.09C68.74,303.56,119.07,266.01,178,266.01z"/>
		<path class="st2" d="M178,277.99c52.22,0,97.03,32.32,115.49,78h2.19c-18.53-46.86-64.23-80-117.68-80s-99.15,33.14-117.68,80
			h2.19C80.97,310.31,125.78,277.99,178,277.99z"/>
		<path class="st2" d="M178,290.99c44.89,0,83.67,26.67,101.33,65h3.33c-17.83-40.06-57.98-68-104.66-68s-86.83,27.94-104.66,68
			h3.33C94.33,317.66,133.11,290.99,178,290.99z"/>
		<path class="st2" d="M178,303.99c37.51,0,70.18,21.07,86.81,52h4.56c-16.95-33.24-51.5-56-91.37-56s-74.42,22.76-91.37,56h4.56
			C107.82,325.06,140.49,303.99,178,303.99z"/>
		<path class="st2" d="M178,315.99c30.59,0,57.53,15.96,72.91,40h4.74c-15.82-26.36-44.67-44-77.65-44s-61.83,17.64-77.65,44h4.74
			C120.47,331.95,147.41,315.99,178,315.99z"/>
		<path class="st2" d="M178,328.99c22.9,0,43.38,10.53,56.87,27h6.36c-14.29-19.4-37.29-32-63.24-32s-48.95,12.6-63.24,32h6.36
			C134.62,339.52,155.1,328.99,178,328.99z"/>
		<path class="st2" d="M177.5,340.99c15.35,0,29.39,5.67,40.18,15h7.34c-12.07-12.34-28.9-20-47.52-20s-35.45,7.66-47.52,20h7.34
			C148.11,346.65,162.15,340.99,177.5,340.99z"/>
		<path class="st2" d="M178,352.99c5.96,0,11.68,1.06,16.98,3h13.31c-8.71-5.68-19.11-9-30.29-9s-21.57,3.32-30.29,9h13.31
			C166.32,354.05,172.04,352.99,178,352.99z"/>
	</g>
</g>
</svg>
