<?xml version="1.0" encoding="utf-8"?>
<!-- Generator: Adobe Illustrator 23.0.4, SVG Export Plug-In . SVG Version: 6.00 Build 0)  -->
<svg version="1.1" id="レイヤー_1" xmlns="http://www.w3.org/2000/svg" xmlns:xlink="http://www.w3.org/1999/xlink" x="0px"
	 y="0px" viewBox="0 0 378 59.88" style="enable-background:new 0 0 378 59.88;" xml:space="preserve">
<style type="text/css">
	.st0{fill:#040000;}
	.st1{opacity:0.2;fill:#FFFFFF;}
</style>
<g>
	<path class="st0" d="M189,0C134.22,0,84.81,23.01,49.91,59.88h278.19C293.19,23.01,243.78,0,189,0z"/>
	<path class="st1" d="M189,54.88c12.72,0,25.04,1.75,36.73,5h3.57c-12.74-3.9-26.27-6-40.29-6s-27.55,2.1-40.29,6h3.57
		C163.96,56.63,176.28,54.88,189,54.88z"/>
	<path class="st1" d="M189,36.88c29.77,0,57.57,8.42,81.16,23h1.89c-24.03-15.2-52.51-24-83.05-24s-59.02,8.8-83.05,24h1.89
		C131.43,45.31,159.23,36.88,189,36.88z"/>
	<path class="st1" d="M189,18.88c42.59,0,81.57,15.43,111.67,41h1.55c-30.4-26.17-69.96-42-113.22-42s-82.82,15.83-113.22,42h1.55
		C107.43,34.32,146.41,18.88,189,18.88z"/>
</g>
</svg>
