<?xml version="1.0" encoding="utf-8"?>
<!-- Generator: Adobe Illustrator 23.0.4, SVG Export Plug-In . SVG Version: 6.00 Build 0)  -->
<svg version="1.1" id="レイヤー_1" xmlns="http://www.w3.org/2000/svg" xmlns:xlink="http://www.w3.org/1999/xlink" x="0px"
	 y="0px" viewBox="0 0 135 45" style="enable-background:new 0 0 135 45;" xml:space="preserve">
<style type="text/css">
	.st0{fill:#030303;}
	.st1{fill:#FC5053;}
	.st2{fill:#FFE3DF;}
	.st3{fill:#F9DEDA;}
</style>
<g>
	<path class="st0" d="M128.5,45H6.5C2.91,45,0,42.09,0,38.5v-32C0,2.91,2.91,0,6.5,0h122c3.59,0,6.5,2.91,6.5,6.5v32
		C135,42.09,132.09,45,128.5,45z"/>
	<g>
		<g>
			<g>
				<circle class="st1" cx="26.58" cy="22.42" r="3.02"/>
				<path class="st2" d="M38.54,28.89l-4.42-6.31c-0.08,4.11-3.41,7.41-7.54,7.41c-4.11,0-7.46-3.29-7.55-7.37
					c-0.06-2.85,1.71-5.44,4.21-6.83c2.17-1.19,4.09-1.06,5.8-0.47L24.62,9c-7.23,1.06-12.61,7.78-11.46,15.51
					C14,30.23,18.59,34.9,24.3,35.83c0.56,0.09,1.1,0.14,1.66,0.17h1.27C32.11,35.76,36.33,32.95,38.54,28.89z"/>
			</g>
			<polygon class="st2" points="46.03,9 46.03,27.91 32.77,9 27.24,9 45.26,34.73 46.03,35.8 46.15,35.98 50.56,35.98 50.56,34.38 
				50.56,9 			"/>
			<rect x="53" y="9" class="st2" width="4.53" height="27"/>
			<path class="st2" d="M68.34,9h-3.81H60v4.56V36h4.53V24.73c1.15,0.59,2.43,0.92,3.81,0.92c4.61,0,8.34-3.73,8.34-8.34
				C76.66,12.73,72.93,9,68.34,9z M68.34,21.1c-2.08,0-3.78-1.69-3.78-3.78s1.69-3.78,3.78-3.78s3.78,1.69,3.78,3.78
				S70.42,21.1,68.34,21.1z"/>
		</g>
		<circle class="st3" cx="87.5" cy="22.5" r="2.5"/>
		<g>
			<path class="st2" d="M107.71,11.95c-0.33,0.8-0.69,1.57-1.04,2.28h13.31v2.45h-7.26v3.66h6.68v2.42h-6.68v4.12h8.47v2.42h-8.47
				v5.69h-2.8V29.3H99.6v-2.42h3.38v-6.54h6.93v-3.66h-4.59c-1.1,1.81-2.42,3.35-3.93,4.65l-1.81-1.98
				c2.58-2.17,4.37-5.14,5.55-8.33L107.71,11.95z M105.65,26.88h4.26v-4.12h-4.26V26.88z"/>
		</g>
	</g>
</g>
</svg>
