<?xml version="1.0" encoding="utf-8"?>
<!-- Generator: Adobe Illustrator 23.0.4, SVG Export Plug-In . SVG Version: 6.00 Build 0)  -->
<svg version="1.1" id="レイヤー_1" xmlns="http://www.w3.org/2000/svg" xmlns:xlink="http://www.w3.org/1999/xlink" x="0px"
	 y="0px" viewBox="0 0 28.92 28.92" style="enable-background:new 0 0 28.92 28.92;" xml:space="preserve">
<style type="text/css">
	.st0{fill:#FF5555;}
	.st1{fill:#FFFFFF;}
</style>
<g>
	<circle class="st0" cx="14.46" cy="14.46" r="14.46"/>
	<path class="st1" d="M19.31,0.85c-0.63-0.23-1.28-0.41-1.95-0.55v1.58v8.71c-0.81-0.61-1.8-0.98-2.89-0.98
		c-2.68,0-4.85,2.17-4.85,4.85s2.17,4.85,4.85,4.85s4.85-2.17,4.85-4.85V0.85L19.31,0.85z"/>
	<path class="st1" d="M12.58,4.63V4.47c0-0.58-0.56-1.01-1.12-0.85c-3.79,1.04-6.77,4.01-7.84,7.79c-0.16,0.56,0.27,1.12,0.85,1.12
		h0.18c0.4,0,0.74-0.28,0.85-0.67c0.89-3.08,3.32-5.51,6.41-6.38C12.3,5.38,12.58,5.04,12.58,4.63z"/>
</g>
</svg>
