<?xml version="1.0" encoding="utf-8"?>
<!-- Generator: Adobe Illustrator 23.0.6, SVG Export Plug-In . SVG Version: 6.00 Build 0)  -->
<svg version="1.1" id="レイヤー_1" xmlns="http://www.w3.org/2000/svg" xmlns:xlink="http://www.w3.org/1999/xlink" x="0px"
	 y="0px" viewBox="0 0 54 54" style="enable-background:new 0 0 54 54;" xml:space="preserve">
<style type="text/css">
	.st0{opacity:0.2;}
	.st1{fill:#FFFFFF;}
</style>
<g>
	<g class="st0">
		<circle cx="27" cy="27" r="27"/>
	</g>
	<path class="st1" d="M36.19,34.07L29.12,27l7.07-7.07c0.59-0.59,0.59-1.54,0-2.12s-1.54-0.59-2.12,0L27,24.88l-7.07-7.07
		c-0.59-0.59-1.54-0.59-2.12,0s-0.59,1.54,0,2.12L24.88,27l-7.07,7.07c-0.59,0.59-0.59,1.54,0,2.12s1.54,0.59,2.12,0L27,29.12
		l7.07,7.07c0.59,0.59,1.54,0.59,2.12,0S36.78,34.66,36.19,34.07z"/>
</g>
</svg>
