<?xml version="1.0" encoding="utf-8"?>
<!-- Generator: Adobe Illustrator 23.1.1, SVG Export Plug-In . SVG Version: 6.00 Build 0)  -->
<svg version="1.1" id="レイヤー_1" xmlns="http://www.w3.org/2000/svg" xmlns:xlink="http://www.w3.org/1999/xlink" x="0px"
	 y="0px" viewBox="0 0 150 150" style="enable-background:new 0 0 150 150;" xml:space="preserve">
<style type="text/css">
	.st0{fill:#F6EEF0;}
	.st1{fill:url(#SVGID_1_);}
</style>
<g id="お気に入り">
	<g>
		<rect class="st0" width="150" height="150"/>
		<linearGradient id="SVGID_1_" gradientUnits="userSpaceOnUse" x1="38.6366" y1="75" x2="108.3554" y2="75">
			<stop  offset="0" style="stop-color:#FF6B53"/>
			<stop  offset="1" style="stop-color:#FF2D27"/>
		</linearGradient>
		<path class="st1" d="M94.73,42.19c-1.18-0.11-2.29-0.16-3.33-0.16c-8.33,0-12.32,3.39-16.89,8.51c-4.57-5.13-8.57-8.51-16.89-8.51
			c-1.04,0-2.15,0.05-3.33,0.16c-7.21,0.66-15.54,6.87-16.56,18.77v3.96c1.67,12.49,6.98,18.51,36.78,43.05v0c0,0,0,0,0,0
			c0,0,0,0,0,0v0c29.8-24.54,35.11-30.57,36.78-43.05v-3.96C110.27,49.06,101.93,42.85,94.73,42.19z"/>
	</g>
</g>
</svg>
