<?xml version="1.0" encoding="utf-8"?>
<!-- Generator: Adobe Illustrator 23.1.1, SVG Export Plug-In . SVG Version: 6.00 Build 0)  -->
<svg version="1.1" id="レイヤー_1" xmlns="http://www.w3.org/2000/svg" xmlns:xlink="http://www.w3.org/1999/xlink" x="0px"
	 y="0px" viewBox="0 0 60 60" style="enable-background:new 0 0 60 60;" xml:space="preserve">
<style type="text/css">
	.st0{fill:#FFBD20;}
	.st1{fill:#FFFFFF;}
</style>
<g>
	<circle class="st0" cx="30" cy="30" r="30"/>
	<path class="st1" d="M50.06,24.9c0.5-0.5,0.2-1.36-0.5-1.45l-11.56-1.48c-0.93-0.12-1.74-0.69-2.17-1.52l-5.33-10.36
		c-0.32-0.63-1.23-0.61-1.53,0.03L24,20.65c-0.4,0.85-1.19,1.44-2.11,1.59l-11.5,1.87c-0.7,0.11-0.96,0.98-0.45,1.46l8.48,7.99
		c0.68,0.64,1,1.58,0.86,2.5l-1.78,11.52c-0.11,0.7,0.63,1.22,1.25,0.88l10.22-5.59c0.82-0.45,1.81-0.47,2.65-0.04l10.4,5.25
		c0.63,0.32,1.35-0.22,1.22-0.92L41.08,35.7c-0.17-0.92,0.12-1.87,0.78-2.53L50.06,24.9z M37.2,35.46l1.32,7l-6.36-3.21
		c-1.25-0.63-2.73-0.61-3.95,0.07l-6.25,3.42l1.09-7.04c0.21-1.38-0.27-2.78-1.28-3.74l-5.18-4.89l7.03-1.14
		c1.38-0.22,2.56-1.11,3.16-2.38l3.05-6.44l3.26,6.33c0.64,1.24,1.85,2.09,3.24,2.27l7.07,0.91l-5.02,5.06
		C37.38,32.67,36.94,34.08,37.2,35.46z"/>
</g>
</svg>
