<?xml version="1.0" encoding="utf-8"?>
<!-- Generator: Adobe Illustrator 23.0.6, SVG Export Plug-In . SVG Version: 6.00 Build 0)  -->
<svg version="1.1" id="レイヤー_1" xmlns="http://www.w3.org/2000/svg" xmlns:xlink="http://www.w3.org/1999/xlink" x="0px"
	 y="0px" viewBox="0 0 56 114" style="enable-background:new 0 0 56 114;" xml:space="preserve">
<style type="text/css">
	.st0{opacity:0.4;fill:#FFFFFF;}
	.st1{opacity:0.4;}
	.st2{fill:#FFFFFF;}
</style>
<path class="st0" d="M46.5,0h-37C4.25,0,0,4.25,0,9.5v37C0,51.75,4.25,56,9.5,56h37c5.25,0,9.5-4.25,9.5-9.5v-37
	C56,4.25,51.75,0,46.5,0z M51,45.5c0,3.04-2.46,5.5-5.5,5.5h-35C7.46,51,5,48.54,5,45.5v-35C5,7.46,7.46,5,10.5,5h35
	c3.04,0,5.5,2.46,5.5,5.5V45.5z"/>
<g class="st1">
	<path class="st2" d="M43.86,73.6c-0.84-0.72-2.1-0.61-2.82,0.23l-17,20l-9.1-10.24c-0.73-0.83-2-0.9-2.82-0.17
		c-0.83,0.73-0.9,2-0.17,2.82l10.63,11.96c0.03,0.04,0.07,0.06,0.11,0.1c0.03,0.03,0.06,0.07,0.09,0.1l0,0
		c0.02,0.01,0.03,0.02,0.05,0.03c0.06,0.05,0.12,0.09,0.18,0.13c0.05,0.03,0.1,0.07,0.15,0.09c0.06,0.03,0.13,0.06,0.19,0.08
		c0.06,0.02,0.11,0.05,0.17,0.06c0.06,0.02,0.13,0.03,0.19,0.04c0.06,0.01,0.12,0.02,0.18,0.03c0.07,0.01,0.13,0,0.2,0
		c0.06,0,0.12,0,0.18-0.01c0.07-0.01,0.13-0.02,0.2-0.04c0.06-0.01,0.12-0.02,0.18-0.04c0.06-0.02,0.12-0.05,0.19-0.07
		c0.06-0.02,0.12-0.05,0.17-0.08c0.06-0.03,0.11-0.07,0.16-0.1c0.06-0.04,0.11-0.08,0.17-0.12c0.02-0.01,0.04-0.02,0.05-0.04
		c0.04-0.03,0.06-0.07,0.1-0.11c0.03-0.03,0.07-0.06,0.1-0.09l18.49-21.76C44.8,75.58,44.7,74.32,43.86,73.6z"/>
	<path class="st2" d="M46.5,58h-37C4.25,58,0,62.25,0,67.5v37c0,5.25,4.25,9.5,9.5,9.5h37c5.25,0,9.5-4.25,9.5-9.5v-37
		C56,62.25,51.75,58,46.5,58z M51,103.5c0,3.04-2.46,5.5-5.5,5.5h-35c-3.04,0-5.5-2.46-5.5-5.5v-35c0-3.04,2.46-5.5,5.5-5.5h35
		c3.04,0,5.5,2.46,5.5,5.5V103.5z"/>
</g>
</svg>
