<?xml version="1.0" encoding="utf-8"?>
<!-- Generator: Adobe Illustrator 23.0.4, SVG Export Plug-In . SVG Version: 6.00 Build 0)  -->
<svg version="1.1" id="レイヤー_1" xmlns="http://www.w3.org/2000/svg" xmlns:xlink="http://www.w3.org/1999/xlink" x="0px"
	 y="0px" viewBox="0 0 215 215" style="enable-background:new 0 0 215 215;" xml:space="preserve">
<style type="text/css">
	.st0{fill:#F22A25;}
	.st1{fill:#FFFFFF;}
</style>
<path class="st0" d="M107.5,215L107.5,215C48.13,215,0,166.87,0,107.5v0C0,48.13,48.13,0,107.5,0h0C166.87,0,215,48.13,215,107.5v0
	C215,166.87,166.87,215,107.5,215z"/>
<g>
	<path class="st1" d="M105.37,58.51c0.8-11.18,11.77-20.2,22.81-19.64c6.39,0.17,12.67,2.73,17.59,6.77
		c3.29,2.56,4.47,7.67,2.27,11.27c-2.54,3.64-8.15,3.45-11.4,0.92c-3.02-2.35-6.88-4.46-10.83-3.61c-3.45,0.8-5.05,4.69-4.5,7.93
		c0.56,3.26,1.63,6.39,2.48,9.59c6.25,0.27,12.48,1.87,17.98,4.88c9.15,5.26,16.98,13.13,21.29,22.84
		c4.12,9.02,4.99,19.29,3.35,29.01c-2.32,12.62-9.59,24.12-19.46,32.22c-11.2,9.17-25.82,13.64-40.21,13.51
		c-13.5,0-26.88-4.84-37.42-13.25c-14.11-11.12-23.2-28.4-24.2-46.35c-0.88-12.56,2.33-25.31,8.77-36.1
		c7.4-12.48,19.16-22.33,32.79-27.33c2.35-0.78,5.06-0.75,7.25,0.5c3.41,1.78,4.83,6.62,2.71,9.89c-1.15,2.07-3.24,3.4-5.43,4.15
		c-11.2,4.31-20.62,12.97-25.91,23.74c-4.35,8.64-5.87,18.61-4.49,28.17c1.75,12.56,8.64,24.31,18.73,31.99
		c8.05,6.17,18.19,9.68,28.36,9.39c11.66-0.04,23.57-4.12,31.99-12.36c6.05-5.99,10.58-13.84,11.56-22.4
		c1.42-9.24-1.06-19.11-7.27-26.2c-4.32-4.81-9.71-9.05-16.13-10.55c1.51,4.62,2.89,9.28,4.21,13.95
		c1.82,6.91,1.89,14.64-1.62,21.06c-3.75,7.22-11.08,12.48-19.15,13.61c-7.64,1.33-15.81-1.32-21.32-6.74
		c-5.31-5.04-8.36-12.28-8.62-19.56c-0.53-6.91,0.92-14.04,4.55-19.99c4.83-8.15,13.22-13.78,22.25-16.32
		C107.22,68.53,105.01,63.69,105.37,58.51 M97.58,101.37c-1.66,5.89-1.13,13.23,3.71,17.52c4.52,4.11,12.37,2.44,15.35-2.71
		c1.87-2.88,1.9-6.51,1.23-9.77c-1.66-6.17-3.58-12.27-5.54-18.35C105.85,90.08,99.53,94.57,97.58,101.37z"/>
</g>
</svg>
