<?xml version="1.0" encoding="utf-8"?>
<!-- Generator: Adobe Illustrator 23.0.6, SVG Export Plug-In . SVG Version: 6.00 Build 0)  -->
<svg version="1.1" id="レイヤー_1" xmlns="http://www.w3.org/2000/svg" xmlns:xlink="http://www.w3.org/1999/xlink" x="0px"
	 y="0px" viewBox="0 0 33 68" style="enable-background:new 0 0 33 68;" xml:space="preserve">
<style type="text/css">
	.st0{opacity:0.27;}
	.st1{fill:#FF3A3A;}
	.st2{fill:#FFFFFF;}
</style>
<path class="st0" d="M29.6,0H3.4C1.52,0,0,1.52,0,3.4V29.6C0,31.48,1.52,33,3.4,33H29.6c1.88,0,3.4-1.52,3.4-3.4V3.4
	C33,1.52,31.48,0,29.6,0z M31,29c0,1.1-0.9,2-2,2H4c-1.1,0-2-0.9-2-2V4c0-1.1,0.9-2,2-2h25c1.1,0,2,0.9,2,2V29z"/>
<g>
	<path class="st1" d="M29.6,35H3.4C1.52,35,0,36.52,0,38.4V64.6C0,66.48,1.52,68,3.4,68H29.6c1.88,0,3.4-1.52,3.4-3.4V38.4
		C33,36.52,31.48,35,29.6,35z"/>
	<path class="st2" d="M24.26,44.2L13.4,56.69l-4.7-4.7c-0.39-0.39-1.02-0.39-1.41,0c-0.39,0.39-0.39,1.02,0,1.41l5.46,5.46
		c0.01,0.01,0.02,0.01,0.03,0.02c0.01,0.01,0.01,0.02,0.02,0.03c0.04,0.04,0.1,0.05,0.14,0.08c0.06,0.04,0.11,0.08,0.17,0.1
		c0.06,0.02,0.12,0.03,0.19,0.04c0.06,0.01,0.12,0.03,0.19,0.02c0.06,0,0.12-0.02,0.19-0.04c0.06-0.01,0.13-0.02,0.19-0.05
		c0.06-0.03,0.11-0.07,0.16-0.11c0.05-0.03,0.1-0.05,0.14-0.09c0.01-0.01,0.01-0.02,0.02-0.03c0.01-0.01,0.02-0.01,0.03-0.02
		l11.56-13.3c0.36-0.42,0.32-1.05-0.1-1.41C25.25,43.74,24.62,43.78,24.26,44.2z"/>
</g>
</svg>
