<?xml version="1.0" encoding="utf-8"?>
<!-- Generator: Adobe Illustrator 23.0.4, SVG Export Plug-In . SVG Version: 6.00 Build 0)  -->
<svg version="1.1" id="レイヤー_1" xmlns="http://www.w3.org/2000/svg" xmlns:xlink="http://www.w3.org/1999/xlink" x="0px"
	 y="0px" viewBox="0 0 52.61 378.26" style="enable-background:new 0 0 52.61 378.26;" xml:space="preserve">
<style type="text/css">
	.st0{fill:#151515;}
	.st1{opacity:0.1;fill:#FFFFFF;}
	.st2{opacity:0.3;fill:#040000;}
</style>
<g>
	<g>
		<path class="st0" d="M52.61,189.13c0-53.65-19.86-102.66-52.61-140.1v280.2C32.76,291.79,52.61,242.78,52.61,189.13L52.61,189.13z
			"/>
		<path class="st1" d="M3.61,189.62c0,11.79-1.25,23.29-3.61,34.38v4.51c3.01-12.47,4.61-25.5,4.61-38.89S3.01,163.21,0,150.73v4.51
			C2.36,166.33,3.61,177.83,3.61,189.62z"/>
		<path class="st1" d="M9.61,189.63c0,19.81-3.39,38.83-9.61,56.52v2.97c6.86-18.53,10.61-38.57,10.61-59.48S6.86,148.68,0,130.15
			v2.97C6.22,150.8,9.61,169.82,9.61,189.63z"/>
		<path class="st1" d="M15.61,189.62c0,25.9-5.58,50.5-15.61,72.65v2.36c10.65-22.79,16.61-48.2,16.61-75.01S10.65,137.4,0,114.61
			v2.36C10.03,139.13,15.61,163.72,15.61,189.62z"/>
		<path class="st1" d="M21.61,189.62c0,31.17-7.83,60.51-21.61,86.17v2.09c14.41-26.18,22.61-56.26,22.61-88.26
			S14.41,127.55,0,101.36v2.09C13.79,129.12,21.61,158.45,21.61,189.62z"/>
		<path class="st1" d="M27.61,189.63c0,35.99-10.1,69.62-27.61,98.22v1.89c18.13-29.05,28.61-63.35,28.61-100.11
			S18.13,118.57,0,89.52v1.89C17.51,120.01,27.61,153.64,27.61,189.63z"/>
		<path class="st1" d="M33.61,189.62c0,40.52-12.4,78.13-33.61,109.27v1.76c21.82-31.53,34.61-69.78,34.61-111.03
			S21.82,110.13,0,78.6v1.76C21.21,111.49,33.61,149.11,33.61,189.62z"/>
		<path class="st1" d="M39.61,189.63c0,44.84-14.73,86.23-39.61,119.62v1.66c25.49-33.73,40.61-75.73,40.61-121.27
			S25.49,102.09,0,68.36v1.66C24.88,103.4,39.61,144.79,39.61,189.63z"/>
		<path class="st1" d="M45.61,189.63c0,49-17.09,94-45.61,129.39v1.59c29.13-35.71,46.61-81.3,46.61-130.98S29.13,94.36,0,58.65
			v1.59C28.53,95.63,45.61,140.63,45.61,189.63z"/>
		<path class="st1" d="M51.61,189.63c0,53.05-19.45,101.55-51.61,138.77v1.52c32.76-37.51,52.61-86.58,52.61-140.29
			S32.76,86.85,0,49.34v1.52C32.16,88.08,51.61,136.58,51.61,189.63z"/>
	</g>
	<g>
		<polygon class="st2" points="0,155.35 0,155.35 13,147.85 		"/>
		<polygon class="st2" points="15,149 15,146.69 15,0 13,0 0,0 0,2 13,2 13,147.85 0,155.35 0,157.66 15,149 15,149 		"/>
		<polygon class="st1" points="13,2 0,2 0,155.35 13,147.85 		"/>
	</g>
	<g>
		<polygon class="st2" points="0,222.91 0,222.91 13,230.42 		"/>
		<polygon class="st2" points="15,229.26 15,231.57 15,378.26 13,378.26 0,378.26 0,376.26 13,376.26 13,230.42 0,222.91 0,220.6 
			15,229.26 15,229.26 		"/>
		<polygon class="st1" points="13,376.26 0,376.26 0,222.91 13,230.42 		"/>
	</g>
</g>
</svg>
